<?xml version="1.0" encoding="utf-8"?>
<!-- Generator: Adobe Illustrator 27.1.1, SVG Export Plug-In . SVG Version: 6.00 Build 0)  -->
<svg version="1.1" id="Layer_1" xmlns="http://www.w3.org/2000/svg" xmlns:xlink="http://www.w3.org/1999/xlink" x="0px" y="0px"
	 viewBox="0 0 450 450" style="enable-background:new 0 0 450 450;" xml:space="preserve">
<style type="text/css">
	.st0{fill:#F7E81B;}
	.st1{fill:#FAF3CB;}
	.st2{fill:#F5ED98;}
	.st3{fill:#FAF4B4;}
	.st4{fill:#FAF8D7;}
	.st5{fill:#F7F09B;}
	.st6{fill:#F8EB72;}
	.st7{fill:#EEE146;}
	.st8{fill:#E9DD7A;}
	.st9{fill:#EEEA8F;}
	.st10{fill:#FBF6BD;}
	.st11{fill:#F8E91A;}
	.st12{fill:#F8E919;}
	.st13{fill:#F2EA39;}
	.st14{fill:#F2E938;}
	.st15{fill:#FBF9E5;}
	.st16{fill:#F8F5CC;}
	.st17{fill:#FBF9EC;}
	.st18{fill:#EFE562;}
	.st19{fill:#FAEF62;}
	.st20{fill:#FCEA37;}
	.st21{fill:#FAF17D;}
</style>
<g>
	<g>
		<path class="st0" d="M427.35,239.86c-0.32,3.8-0.51,7.61-0.99,11.39c-0.55,4.28-1.36,8.52-2.07,12.78
			c-0.52,3.15-0.81,6.36-1.62,9.43c-1.8,6.82-3.74,13.61-5.86,20.33c-1.51,4.79-3.11,9.58-5.17,14.14
			c-2.91,6.45-6.09,12.79-9.49,18.99c-2.71,4.96-5.77,9.74-8.94,14.43c-3.77,5.57-7.72,11.03-11.81,16.38
			c-2.28,2.98-4.89,5.73-7.53,8.41c-5.11,5.18-10.19,10.42-15.59,15.3c-6.65,6.01-13.68,11.57-21.33,16.3
			c-3.51,2.18-6.77,4.8-10.37,6.81c-5.81,3.24-11.71,6.36-17.77,9.1c-5.62,2.54-11.44,4.66-17.26,6.69
			c-6.01,2.09-12.05,4.15-18.22,5.68c-6.34,1.57-12.86,2.47-19.29,3.7c-7.89,1.52-15.87,2.16-23.89,2.32
			c-3.64,0-7.28,0.01-10.92,0.01c-4.36-0.18-8.74-0.2-13.08-0.58c-4.16-0.36-8.31-0.92-12.42-1.67c-6.99-1.29-14.01-2.51-20.88-4.29
			c-6.52-1.68-12.86-4.04-19.28-6.08c-9.37-2.98-18.17-7.28-26.74-12.01c-5.4-2.99-10.69-6.24-15.78-9.74
			c-5.95-4.08-11.92-8.22-17.34-12.95c-7.43-6.48-14.62-13.28-21.39-20.43c-4.84-5.12-8.78-11.09-13.21-16.61
			c-6.91-8.61-12.5-18.07-17.2-27.98c-4.02-8.49-7.5-17.27-10.65-26.12c-2.5-7.02-4.42-14.28-6.07-21.55
			c-1.41-6.22-2.16-12.61-3.05-18.94c-0.5-3.63-0.68-7.3-1.01-10.95c0.01-1.22,0.02-2.44,0.03-3.66
			c-0.01-6.06-0.01-12.13-0.02-18.19c0-1.22-0.01-2.43-0.01-3.65c0.77-6.82,1.23-13.69,2.4-20.44c1.5-8.7,3.24-17.39,5.51-25.92
			c1.66-6.26,4.16-12.33,6.62-18.35c2.56-6.27,5.28-12.5,8.38-18.51c2.78-5.4,5.97-10.62,9.37-15.66c4.31-6.4,8.83-12.68,13.6-18.75
			c2.98-3.79,6.55-7.11,9.88-10.62c2.61-2.75,5.18-5.54,7.9-8.17c2.51-2.42,5.1-4.76,7.83-6.93c5.21-4.15,10.43-8.29,15.85-12.16
			c4.05-2.89,8.3-5.54,12.66-7.93c6.81-3.73,13.66-7.42,20.72-10.64c6.2-2.83,12.62-5.28,19.1-7.39c6.14-2,12.43-3.63,18.76-4.92
			c7.8-1.58,15.69-2.71,23.56-3.88c3.31-0.49,6.69-0.6,10.03-0.88c0.48,0.13,0.96,0.38,1.45,0.39c6.48,0.03,12.96,0.03,19.44,0
			c0.48,0,0.97-0.25,1.45-0.38c4.37,0.43,8.77,0.73,13.12,1.34c5.44,0.76,10.89,1.59,16.27,2.72c6.32,1.33,12.68,2.69,18.82,4.66
			c6.89,2.2,13.65,4.89,20.29,7.76c6.56,2.83,13.07,5.87,19.3,9.36c6.1,3.41,11.98,7.26,17.66,11.34
			c5.99,4.3,11.82,8.86,17.35,13.72c5.69,5,11.05,10.39,16.36,15.82c3.16,3.23,6.09,6.72,8.82,10.32c3.6,4.75,7.06,9.63,10.27,14.65
			c3.81,5.96,7.6,11.96,10.83,18.24c3.41,6.62,6.46,13.47,9.1,20.44c2.78,7.33,5.16,14.83,7.19,22.4
			c1.98,7.36,3.34,14.89,4.86,22.37c0.4,1.96,0.36,4.02,0.52,6.03c0.28,2.89,0.57,5.78,0.85,8.67c0.02,0.44,0.05,0.88,0.07,1.33
			C427.33,224.4,427.34,232.13,427.35,239.86z M225.61,37.77c-0.91,0-1.81,0.01-2.72,0.01c-1.88-0.02-3.76-0.1-5.64-0.03
			c-1.91,0.07-3.81,0.3-5.72,0.46c-1.67,0.29-3.34,0.66-5.02,0.86c-5.27,0.64-10.61,0.88-15.79,1.91
			c-8.14,1.62-16.26,3.5-24.24,5.75c-5.4,1.52-10.62,3.76-15.83,5.89c-4.21,1.72-8.34,3.65-12.39,5.72
			c-4.29,2.2-8.52,4.54-12.62,7.07c-5.24,3.25-10.49,6.53-15.43,10.21c-5.01,3.74-9.82,7.8-14.41,12.05
			c-5.78,5.36-11.59,10.77-16.76,16.7c-4.74,5.43-8.69,11.56-12.9,17.44c-2.56,3.57-5.31,7.08-7.34,10.95
			c-3.74,7.12-7.19,14.39-10.41,21.76c-2.59,5.94-4.8,12.05-6.89,18.19c-1.43,4.19-2.4,8.53-3.47,12.83
			c-0.7,2.81-1.31,5.65-1.78,8.51c-0.64,3.89-1.17,7.8-1.64,11.72c-0.42,3.47-0.7,6.96-1.04,10.44c-0.17,0.79-0.49,1.58-0.49,2.37
			c-0.04,6.69-0.04,13.38,0,20.08c0,0.71,0.33,1.43,0.5,2.14c0.28,2.13,0.52,4.27,0.83,6.39c1.12,7.65,1.79,15.42,3.53,22.93
			c2.01,8.65,4.83,17.13,7.62,25.58c1.45,4.4,3.47,8.63,5.45,12.83c2.8,5.95,5.62,11.86,9.47,17.29c4.3,6.05,7.78,12.7,12.17,18.67
			c3.87,5.26,8.28,10.17,12.88,14.83c6.15,6.23,12.68,12.07,19.09,18.04c1.61,1.5,3.25,2.99,5.04,4.25
			c3.37,2.36,6.81,4.62,10.31,6.79c5.01,3.11,9.96,6.35,15.18,9.07c6.23,3.25,12.69,6.07,19.11,8.93c3.19,1.42,6.47,2.66,9.8,3.69
			c4.19,1.29,8.47,2.31,12.72,3.4c4.67,1.2,9.29,2.74,14.03,3.44c7.62,1.12,15.32,1.67,22.99,2.46c0.76,0.27,1.51,0.76,2.28,0.77
			c4.82,0.07,9.65,0.08,14.47,0c0.93-0.02,1.84-0.5,2.76-0.77c2.02-0.19,4.04-0.35,6.05-0.56c5.86-0.6,11.8-0.82,17.57-1.94
			c7.18-1.39,14.26-3.38,21.3-5.39c5.56-1.59,11.05-3.48,16.49-5.46c3.54-1.29,7.01-2.83,10.37-4.54c5.34-2.7,10.61-5.54,15.8-8.51
			c4.75-2.71,9.54-5.42,13.97-8.6c4.77-3.41,9.12-7.39,13.7-11.07c7.17-5.77,13.67-12.21,19.41-19.4c3.5-4.39,7.14-8.68,10.46-13.21
			c3.68-5.02,7.41-10.07,10.5-15.46c3.5-6.1,6.49-12.52,9.4-18.93c2.53-5.58,4.85-11.27,6.84-17.06c1.76-5.11,3.16-10.38,4.32-15.67
			c1.58-7.26,3.01-14.57,4.07-21.92c0.75-5.22,0.79-10.54,1.14-15.81c0.19-0.12,0.54-0.24,0.54-0.37
			c-0.03-5.11-0.08-10.21-0.16-15.32c0-0.25-0.3-0.5-0.46-0.76c-0.48-4.97-0.89-9.95-1.48-14.9c-0.56-4.73-1.05-9.49-2.06-14.13
			c-1.22-5.65-2.75-11.27-4.51-16.78c-2.37-7.41-4.7-14.87-7.78-22c-2.92-6.76-6.53-13.26-10.27-19.62
			c-3.35-5.7-7.06-11.24-11.04-16.52c-4.81-6.39-9.89-12.6-15.21-18.56c-3.55-3.98-7.58-7.57-11.67-11.01
			c-5.39-4.53-10.87-9.01-16.64-13.03c-6.66-4.64-13.38-9.35-20.61-12.94c-9.57-4.75-19.5-8.87-29.57-12.45
			c-7.25-2.58-15-3.73-22.48-5.7c-8.41-2.22-17.01-2.74-25.61-3.3c-0.65-0.23-1.3-0.65-1.96-0.67
			C231.04,37.71,228.32,37.76,225.61,37.77z"/>
		<path class="st1" d="M427.35,239.86c-0.01-7.73-0.02-15.45-0.02-23.18c0.29,0.6,0.82,1.2,0.82,1.81
			c0.06,6.13,0.08,12.26,0.01,18.38C428.14,237.87,427.63,238.86,427.35,239.86z"/>
		<path class="st2" d="M235.65,25.51c-0.48,0.13-0.97,0.38-1.45,0.38c-6.48,0.02-12.96,0.02-19.44,0c-0.48,0-0.96-0.25-1.45-0.39
			C220.76,25.51,228.2,25.51,235.65,25.51z"/>
		<path class="st3" d="M21.17,238.5c-0.01,1.22-0.02,2.44-0.03,3.66c-0.27-0.62-0.76-1.25-0.76-1.87
			c-0.06-7.26-0.06-14.51-0.01-21.77c0-0.62,0.51-1.24,0.78-1.86c0,1.22,0.01,2.43,0.01,3.65c-0.14,0.64-0.38,1.28-0.39,1.92
			c-0.03,4.86-0.03,9.73,0.01,14.59C20.78,237.38,21.03,237.94,21.17,238.5z"/>
		<path class="st4" d="M219.24,432.07c3.64,0,7.28-0.01,10.92-0.01c-1.29,0.28-2.56,0.7-3.86,0.8c-1.73,0.14-3.48,0.11-5.22,0
			C220.45,432.82,219.85,432.35,219.24,432.07z"/>
		<path class="st2" d="M427.25,215.35c-0.28-2.89-0.57-5.78-0.85-8.67c0.28,0.53,0.78,1.05,0.81,1.59
			C427.3,210.62,427.25,212.99,427.25,215.35z"/>
		<path class="st5" d="M33.57,216.2c0.13,0.56,0.37,1.12,0.37,1.69c0.03,7.07,0.03,14.14,0,21.22c0,0.56-0.24,1.12-0.37,1.68
			c-0.17-0.71-0.5-1.43-0.5-2.14c-0.04-6.69-0.04-13.38,0-20.08C33.08,217.78,33.39,216.99,33.57,216.2z"/>
		<path class="st6" d="M414.73,235.83c-0.03-5.48-0.06-10.96-0.09-16.44c0.16,0.25,0.46,0.5,0.46,0.76
			c0.08,5.11,0.14,10.21,0.16,15.32C415.27,235.59,414.92,235.71,414.73,235.83z"/>
		<path class="st7" d="M213.81,419.37c0.6-0.02,1.2-0.03,1.81-0.05c4.69,0.01,9.39,0.03,14.08,0.04c1.21,0,2.42,0,3.62,0
			c-0.92,0.27-1.84,0.75-2.76,0.77c-4.82,0.08-9.65,0.07-14.47,0C215.33,420.12,214.57,419.64,213.81,419.37z"/>
		<path class="st8" d="M21.17,238.5c-0.14-0.56-0.39-1.12-0.39-1.68c-0.03-4.86-0.04-9.73-0.01-14.59c0-0.64,0.25-1.28,0.39-1.92
			C21.16,226.37,21.16,232.43,21.17,238.5z"/>
		<path class="st9" d="M220.14,38.54c-0.29,0-0.58,0-0.87,0c-0.77,0.01-1.54,0.01-2.31,0.02c-1.81-0.12-3.62-0.24-5.43-0.36
			c1.91-0.16,3.81-0.39,5.72-0.46c1.88-0.07,3.76,0.01,5.64,0.03C221.98,38.03,221.06,38.29,220.14,38.54z"/>
		<path class="st10" d="M220.14,38.54c0.92-0.25,1.83-0.51,2.75-0.76c0.91,0,1.81-0.01,2.72-0.01c0.92,0.14,1.84,0.31,2.76,0.4
			c1.66,0.16,3.32,0.26,4.98,0.39C228.95,38.55,224.55,38.55,220.14,38.54z"/>
		<path class="st9" d="M233.35,38.56c-1.66-0.13-3.32-0.23-4.98-0.39c-0.92-0.09-1.84-0.26-2.76-0.4c2.72-0.01,5.43-0.06,8.15,0
			c0.66,0.02,1.31,0.44,1.96,0.67C234.93,38.48,234.14,38.52,233.35,38.56z"/>
		<path class="st11" d="M380.05,238.93c4.92,0.05,8.12,4.52,7.23,9.72c-1.09,6.43-2.02,12.93-3.69,19.22
			c-2.04,7.72-4.57,15.34-7.28,22.86c-1.67,4.64-3.73,9.21-6.18,13.49c-3.87,6.78-8.2,13.31-12.38,19.92
			c-1.13,1.79-2.35,3.56-3.69,5.19c-4.63,5.64-9.81,5.37-14.67,0.59c-12.88-12.66-25.55-25.53-38.31-38.32
			c-12.5-12.53-25.01-25.05-37.53-37.56c-2.03-2.03-3.78-4.22-3.87-7.25c-0.14-4.65,1.73-6.88,6.37-7.75c2,0.33,4.04,1.08,5.9-0.46
			c1.81-0.03,3.63-0.09,5.44-0.09c31.87-0.01,63.73-0.01,95.6,0c1.44,0,2.87,0.06,4.31,0.09
			C378.22,238.71,379.14,238.82,380.05,238.93z"/>
		<path class="st12" d="M68.43,218.91c-6.74-1.04-8.61-7.07-7.35-12.57c1.19-5.23,1.68-10.63,3.09-15.79
			c2.17-7.92,4.32-15.92,7.47-23.48c3.62-8.69,8.14-17.03,12.61-25.33c2.74-5.09,6.4-9.65,10.23-14c4.9-5.55,9.23-4.35,13.82-0.72
			c2.62,2.07,4.82,4.67,7.19,7.04c7.3,7.29,14.57,14.61,21.89,21.87c3.18,3.15,6.55,6.09,9.7,9.27c6.5,6.55,12.88,13.24,19.38,19.79
			c3.07,3.1,6.39,5.96,9.45,9.06c3.72,3.77,7.39,7.61,10.9,11.58c1.97,2.23,2.82,5.08,1.38,7.85c-1.52,2.93-4.01,4.88-7.52,5.11
			c-0.47-0.02-0.95-0.04-1.42-0.05c-36.65,0.01-73.29,0.01-109.94,0.02C69.04,218.67,68.74,218.79,68.43,218.91z"/>
		<path class="st11" d="M214.23,185.79c-0.4,4.84-6.68,8.68-10.96,6.67c-3.8-1.78-6.1-4.89-8.83-7.6
			c-17.05-16.89-33.97-33.9-50.95-50.86c-6.71-6.7-13.48-13.33-20.13-20.09c-2.05-2.09-4.14-4.28-4.12-7.61
			c0.02-2.39,0.7-4.47,2.59-5.9c4.87-3.68,9.62-7.57,14.8-10.78c6.3-3.91,12.85-7.47,19.53-10.67c5.19-2.49,10.68-4.44,16.19-6.17
			c6.42-2.02,12.97-3.67,19.52-5.23c3.97-0.95,8.03-1.64,12.1-2.08c4.38-0.47,10.04,2.27,10.21,8.14c-0.12,0.72-0.36,1.44-0.36,2.16
			c-0.02,35.96-0.02,71.93,0,107.89C213.83,184.37,214.09,185.08,214.23,185.79z"/>
		<path class="st12" d="M234.61,273.45c0.27-5.54,2.15-7.8,7.66-8.74c2.64-0.45,5.03,0.79,6.82,2.56c4.82,4.77,9.37,9.8,14.14,14.61
			c6.27,6.34,12.66,12.55,18.97,18.85c14.3,14.28,28.57,28.58,42.87,42.86c1.89,1.88,3.29,3.99,3.64,6.71
			c0.5,3.97-1.69,6.7-4.49,8.88c-3.18,2.47-6.57,4.67-9.99,6.8c-5.76,3.59-11.47,7.28-17.81,9.88c-4.26,1.74-8.28,4.07-12.57,5.72
			c-5.66,2.17-11.44,4.1-17.25,5.83c-4.69,1.39-9.46,2.6-14.29,3.36c-4.15,0.65-8.49,1.1-12.62,0.6c-3.77-0.46-4.66-4.1-5.06-7.5
			c0.02-0.53,0.07-1.06,0.07-1.58c0-33.25,0-66.51-0.01-99.76C234.67,279.5,234.63,276.48,234.61,273.45z"/>
		<path class="st11" d="M233.69,76.77c0-0.45,0.01-0.89,0.01-1.34c0.01-0.15,0.02-0.31,0.02-0.46c0.18-1.09,0.28-2.19,0.57-3.25
			c0.61-2.22,1.55-4.22,4.02-4.95c2.43,0.15,4.86,0.29,7.29,0.44c6.57-0.02,12.84,1.73,19.05,3.51c7.41,2.13,14.94,4.16,21.99,7.2
			c7.72,3.33,15.02,7.66,22.39,11.76c3.87,2.15,7.53,4.69,11.22,7.15c2.63,1.76,5.09,3.79,6.83,6.46c1.56,2.38,0.6,7.38-1.74,9.79
			c-2.32,2.39-4.7,4.72-7.05,7.08c-8.16,8.17-16.33,16.35-24.49,24.52c-5.56,5.56-11.12,11.11-16.68,16.67
			c-4.95,4.95-9.92,9.88-14.84,14.85c-4.54,4.59-8.93,9.34-13.6,13.79c-2.41,2.3-5.44,3.6-8.96,3.05c-2.43-0.38-5.37-4.19-5.9-7.7
			c-0.07-0.45-0.08-0.9-0.12-1.36c-0.01-0.3-0.01-0.61-0.02-0.91c0-0.3,0-0.59,0-0.89c0.03-0.68,0.09-1.36,0.09-2.03
			c0-33.26,0-66.51,0-99.77C233.78,79.18,233.72,77.97,233.69,76.77z"/>
		<path class="st11" d="M180.16,239.47c1.19,0.34,2.47,0.49,3.54,1.04c4.82,2.46,5.73,8.28,1.93,12.27
			c-2.58,2.71-5.27,5.33-7.92,7.98c-9.76,9.77-19.53,19.53-29.29,29.29c-7.17,7.17-14.35,14.34-21.52,21.51
			c-4.95,4.95-9.91,9.89-14.84,14.86c-1.44,1.45-2.67,3.14-4.21,4.47c-4.13,3.55-9.65,3.73-13.28-1.24
			c-2.74-3.75-5.81-7.3-8.15-11.28c-4.1-6.98-7.86-14.16-11.55-21.37c-1.88-3.66-3.55-7.46-4.87-11.35
			c-2.08-6.1-3.91-12.3-5.62-18.53c-1.06-3.86-1.76-7.83-2.52-11.77c-0.47-2.47-1.06-4.97-1.07-7.45c-0.03-6.26,1.91-7.84,7.66-8.57
			c0.53,0.02,1.06,0.07,1.58,0.07c29.67,0,59.34,0,89.02,0C166.08,239.41,173.12,239.45,180.16,239.47z"/>
		<path class="st12" d="M214.26,383.84c-0.92,5.57-4.15,8-9.56,7.2c-5.35-0.79-10.72-1.55-15.97-2.8
			c-11.21-2.67-22.14-6.2-32.66-11.01c-8.94-4.09-17.29-9.15-25.4-14.62c-2.75-1.85-5.19-4.18-7.67-6.4
			c-4.27-3.81-3.57-8.75,0.21-12.75c4.19-4.44,8.65-8.62,12.96-12.93c4.37-4.37,8.7-8.79,13.07-13.16
			c4.45-4.45,8.94-8.87,13.41-13.3c6.82-6.75,13.67-13.47,20.46-20.27c5.65-5.66,11.23-11.39,16.82-17.11
			c1.99-2.04,6.31-2.91,9.11-1.74c2.65,1.11,4.89,2.57,5.14,5.81c-0.12,0.72-0.35,1.44-0.35,2.16c-0.02,36.2-0.02,72.39,0.01,108.59
			C213.82,382.28,214.11,383.06,214.26,383.84z"/>
		<path class="st12" d="M386.41,213.97c-1.18,2.82-3.47,3.89-6.36,4.02c-0.45-0.12-0.91-0.23-1.36-0.35c-0.08,0-0.15-0.01-0.23-0.01
			c-36.3-0.01-72.61-0.03-108.91-0.02c-0.57,0-1.14,0.24-1.71,0.37c-3.16-0.29-5.56-1.52-6.93-4.67c-1.56-3.6-0.59-6.77,1.78-9.25
			c7.09-7.4,14.45-14.53,21.7-21.77c7.87-7.86,15.73-15.72,23.59-23.58c7-6.99,13.98-14.01,21.02-20.96
			c4.15-4.1,8.35-8.14,12.61-12.11c2.98-2.77,7.38-2.8,10.06,0.32c3.6,4.2,6.96,8.65,10.08,13.23c2.86,4.2,5.43,8.62,7.82,13.1
			c2.32,4.36,4.52,8.82,6.28,13.42c2.54,6.64,4.84,13.4,6.87,20.22c1.38,4.61,2.15,9.41,3.14,14.14c0.37,1.74,0.6,3.5,0.9,5.25
			C386.65,208.2,386.53,211.08,386.41,213.97z"/>
		<path class="st13" d="M214.26,383.84c-0.15-0.78-0.44-1.56-0.44-2.34c-0.02-36.2-0.02-72.39-0.01-108.59
			c0-0.72,0.23-1.44,0.35-2.16c0.2,1.05,0.41,2.11,0.61,3.16c-0.03,0.75-0.07,1.51-0.07,2.26c0,33.47,0,66.94,0,100.42
			c0,1.21,0.05,2.41,0.08,3.62C214.62,381.42,214.44,382.63,214.26,383.84z"/>
		<path class="st14" d="M214.23,185.79c-0.14-0.71-0.4-1.42-0.4-2.13c-0.02-35.96-0.02-71.93,0-107.89c0-0.72,0.23-1.44,0.36-2.16
			c0.2,1.06,0.4,2.11,0.6,3.17c-0.03,0.53-0.08,1.05-0.08,1.58c0,33.62,0,67.24,0,100.87c0,0.53,0.05,1.05,0.08,1.58
			C214.6,182.47,214.42,184.13,214.23,185.79z"/>
		<path class="st15" d="M180.16,239.47c-7.04-0.02-14.08-0.06-21.12-0.06c-29.67,0-59.34,0-89.02,0c-0.53,0-1.06-0.05-1.58-0.07
			c0.83-0.28,1.66-0.81,2.49-0.82c23.29-0.04,46.59-0.04,69.88-0.04c12.33,0,24.66-0.02,36.98,0.04
			C178.59,238.54,179.37,239.14,180.16,239.47z"/>
		<path class="st16" d="M234.61,273.45c0.02,3.02,0.06,6.04,0.06,9.06c0.01,33.25,0.01,66.51,0.01,99.76c0,0.53-0.04,1.06-0.07,1.58
			c-0.27-0.84-0.79-1.68-0.79-2.52c-0.04-24.72-0.04-49.45-0.04-74.17c0-10.36-0.02-20.72,0.04-31.07
			C233.84,275.21,234.34,274.33,234.61,273.45z"/>
		<path class="st17" d="M214.79,380.21c-0.03-1.21-0.08-2.41-0.08-3.62c-0.01-33.47-0.01-66.94,0-100.42c0-0.75,0.05-1.51,0.07-2.26
			c0.28,0.83,0.8,1.67,0.8,2.5c0.04,29.67,0.04,59.35,0.04,89.02c0,4.24,0.04,8.48-0.04,12.72
			C215.57,378.85,215.07,379.53,214.79,380.21z"/>
		<path class="st4" d="M233.69,76.77c0.03,1.21,0.09,2.41,0.09,3.62c0.01,33.26,0.01,66.51,0,99.77c0,0.68-0.06,1.36-0.09,2.03
			c-0.27-0.62-0.77-1.23-0.77-1.85c-0.04-33.91-0.04-67.81,0-101.72C232.92,78,233.42,77.38,233.69,76.77z"/>
		<path class="st18" d="M69.35,218.55c36.65-0.01,73.29-0.01,109.94-0.02c-0.87,0.14-1.73,0.32-2.6,0.4
			c-1.7,0.16-3.41,0.26-5.11,0.39c-4.83,0.02-9.67,0.06-14.5,0.06c-26.59,0.01-53.19,0-79.78,0c-0.98,0-1.96-0.04-2.94-0.06
			c-0.9,0.01-1.81,0.02-2.71,0.02c-0.31,0-0.61,0-0.92,0C70.26,219.09,69.81,218.82,69.35,218.55z"/>
		<path class="st17" d="M214.78,180.81c-0.03-0.53-0.08-1.05-0.08-1.58c0-33.62,0-67.24,0-100.87c0-0.53,0.05-1.05,0.08-1.58
			c0.28,0.83,0.8,1.66,0.8,2.5c0.04,31.8,0.03,63.61,0.03,95.41c0,1.51,0.07,3.03-0.04,4.53
			C215.54,179.76,215.06,180.28,214.78,180.81z"/>
		<path class="st19" d="M378.7,217.63c0.45,0.12,0.91,0.23,1.36,0.35c-0.79,0.17-1.58,0.5-2.37,0.5
			c-35.7,0.03-71.39,0.02-107.09,0.02c-0.6,0-1.21-0.07-1.81-0.1c0.88-0.11,1.75-0.33,2.63-0.33c34.81-0.02,69.63-0.01,104.44-0.03
			C376.81,218.03,377.75,217.77,378.7,217.63z"/>
		<path class="st7" d="M378.7,217.63c-0.94,0.14-1.89,0.4-2.83,0.4c-34.81,0.02-69.63,0.02-104.44,0.03c-0.88,0-1.75,0.22-2.63,0.33
			c-0.31-0.14-0.63-0.28-0.94-0.42c0.57-0.13,1.14-0.37,1.71-0.37c36.3-0.01,72.61,0.01,108.91,0.02
			C378.55,217.62,378.62,217.63,378.7,217.63z"/>
		<path class="st18" d="M386.41,213.97c0.12-2.88,0.24-5.77,0.36-8.65c0.17,2.28,0.42,4.55,0.48,6.83
			C387.27,212.75,386.71,213.36,386.41,213.97z"/>
		<path class="st16" d="M245.61,67.2c-2.43-0.15-4.86-0.29-7.29-0.44C239.85,65.27,244.26,65.54,245.61,67.2z"/>
		<path class="st6" d="M229.7,419.36c-4.69-0.01-9.39-0.03-14.08-0.04C220.31,419.34,225.01,419.35,229.7,419.36z"/>
		<path class="st20" d="M271.96,238.59c-1.86,1.54-3.9,0.79-5.9,0.46C268.03,238.9,269.99,238.74,271.96,238.59z"/>
		<path class="st21" d="M171.57,219.32c1.7-0.13,3.41-0.23,5.11-0.39c0.87-0.08,1.74-0.26,2.6-0.4c0.47,0.02,0.94,0.04,1.42,0.05
			c-0.73,0.26-1.45,0.73-2.19,0.75C176.2,219.43,173.89,219.34,171.57,219.32z"/>
		<path class="st20" d="M380.05,238.93c-0.91-0.11-1.83-0.22-2.74-0.34C378.22,238.71,379.14,238.82,380.05,238.93z"/>
		<path class="st21" d="M71.64,219.35c0.9-0.01,1.81-0.02,2.71-0.02C73.44,219.33,72.54,219.34,71.64,219.35z"/>
		<path class="st21" d="M69.35,218.55c0.46,0.27,0.91,0.53,1.37,0.8c-0.76-0.15-1.53-0.29-2.29-0.44
			C68.74,218.79,69.04,218.67,69.35,218.55z"/>
		<path class="st10" d="M216.96,38.56c0.77-0.01,1.54-0.01,2.31-0.02C218.5,38.55,217.73,38.56,216.96,38.56z"/>
		<path class="st4" d="M233.69,183.07c0.01,0.3,0.01,0.61,0.02,0.91C233.71,183.68,233.7,183.38,233.69,183.07z"/>
		<path class="st4" d="M233.73,74.96c-0.01,0.15-0.02,0.31-0.02,0.46c-0.04-0.11-0.1-0.22-0.13-0.34
			C233.57,75.06,233.68,75.01,233.73,74.96z"/>
	</g>
</g>
</svg>
