<svg width="535" height="549" viewBox="0 0 535 549" fill="none" xmlns="http://www.w3.org/2000/svg">
<g clip-path="url(#clip0_673_1011)">
<path fill-rule="evenodd" clip-rule="evenodd" d="M342.6 139.464C400.373 166.967 457.286 210.544 465.877 273.996C474.155 335.136 426.871 386.48 381.744 428.577C343.778 463.992 295.368 482.888 243.508 481.43C190.976 479.952 132.692 466.394 106.487 420.834C82.0205 378.297 118.462 330.589 129.186 282.669C141.045 229.678 125.701 163.77 170.785 133.518C220.881 99.9021 288.174 113.554 342.6 139.464Z" fill="#EFFFE1"/>
<path d="M287.532 55.8173C282.604 54.8634 278.629 51.0478 277.675 46.1192C277.675 45.9603 277.198 45.9603 277.198 46.1192C276.245 51.0478 272.27 54.8634 267.341 55.8173C267.182 55.8173 267.182 56.1353 267.341 56.2942C272.27 57.2481 276.245 61.0638 277.198 65.9923C277.198 66.1513 277.675 66.1513 277.675 65.9923C278.629 61.0638 282.604 57.2481 287.532 56.2942C287.691 56.1353 287.691 55.8173 287.532 55.8173Z" fill="#87D147"/>
<path d="M422.669 153.273H426.326V156.929C426.326 159.791 428.552 162.017 431.413 162.017C434.116 162.017 436.501 159.791 436.501 157.088V156.929V153.273H440.158C443.019 153.273 445.245 151.047 445.245 148.185C445.245 145.482 443.019 143.098 440.317 143.098H440.158H436.501V139.441C436.501 136.579 434.275 134.354 431.413 134.354C428.711 134.354 426.326 136.579 426.326 139.282V139.441V143.098H422.669C419.808 143.098 417.582 145.323 417.582 148.185C417.423 150.888 419.649 153.273 422.669 153.273C422.51 153.273 422.51 153.273 422.669 153.273Z" fill="#70D6F9"/>
<path d="M318.375 124.335C321.361 124.335 323.781 121.915 323.781 118.93C323.781 115.945 321.361 113.524 318.375 113.524C315.39 113.524 312.97 115.945 312.97 118.93C312.97 121.915 315.39 124.335 318.375 124.335Z" fill="#F5C84C"/>
<path d="M199.932 433.882C202.917 433.882 205.337 431.462 205.337 428.476C205.337 425.491 202.917 423.071 199.932 423.071C196.946 423.071 194.526 425.491 194.526 428.476C194.526 431.462 196.946 433.882 199.932 433.882Z" fill="#FC657E"/>
<path d="M98.0231 368.301C105.177 367.029 110.742 361.465 112.173 354.469C112.173 354.151 112.809 354.151 112.809 354.469C114.24 361.465 119.804 367.029 126.958 368.301C127.276 368.301 127.276 368.778 126.958 368.937C119.804 370.209 114.24 375.773 112.809 382.768C112.809 383.086 112.173 383.086 112.173 382.768C110.742 375.773 105.177 370.209 98.0231 368.937C97.7052 368.778 97.7052 368.301 98.0231 368.301Z" fill="#F5C84C"/>
<g clip-path="url(#clip1_673_1011)">
<path d="M446.18 246.4L419.823 232.449C405.463 165.522 342.501 115.121 267 115.121C191.499 115.121 128.537 165.522 114.177 232.449L87.8204 246.4C75.6816 252.826 75.6816 270.215 87.8204 276.64L114.177 290.592C128.537 357.518 191.498 407.919 267 407.919C342.501 407.919 405.463 357.518 419.822 290.592L446.179 276.64C458.318 270.215 458.318 252.826 446.18 246.4Z" fill="#FEDF30"/>
<path d="M320.515 397.415C238.913 397.415 172.763 331.264 172.763 249.663C172.763 190.039 208.083 138.67 258.94 115.322C187.053 118.761 128.023 167.92 114.177 232.45L87.8204 246.401C75.6816 252.827 75.6816 270.216 87.8204 276.641L114.177 290.593C128.537 357.519 191.498 407.92 267 407.92C287.615 407.92 307.292 404.156 325.303 397.33C323.713 397.38 322.118 397.415 320.515 397.415Z" fill="#FED402"/>
<path d="M383.738 381.143L357.92 300.147L322.502 296.065L316.767 305.009L277.183 401.273L275.635 413.313L348.303 419.682L385.018 411.68L383.738 381.143Z" fill="#FEF0AE"/>
<path d="M307.829 284.09L301.232 291.235L300.424 291.426L215.777 338.25L206.939 344.165L242.08 400.495L294.97 423.687L338.112 303.595L307.829 284.09Z" fill="#FEF0AE"/>
<path d="M299.593 263.855L225.358 233.335L225.069 234.044L208.09 239.332L193.084 291.235L202.01 353.708L218.76 371.38L309.608 307.387L329.328 285.422L299.593 263.855Z" fill="#FEF0AE"/>
<path d="M433.016 319.535L433.306 318.827L357.92 287.834H342.116L322.835 300.653L336.73 306.356L338.147 307.553L357.855 374.739L346.866 383.146L363.911 415.279L396.325 400.493L437.959 329.433L433.016 319.535Z" fill="#FEF0AE"/>
<path d="M299.594 263.865L357.92 287.846C354.01 297.358 345.976 303.944 336.73 306.368C330.335 308.045 323.353 307.725 316.767 305.019C309.914 302.199 304.586 297.252 301.232 291.245C296.705 283.135 295.79 273.119 299.594 263.865Z" fill="#FEE45A"/>
<path d="M277.184 401.283C277.374 401.367 277.565 401.451 277.763 401.527C307.056 413.571 338.567 412.29 365.528 400.506C391.33 389.232 412.954 368.339 424.487 340.304L433.017 319.548L433.306 318.839L450.312 325.829C452.599 326.774 453.696 329.388 452.751 331.683L445.632 348.993C417.215 418.121 338.125 451.111 269.005 422.649C199.739 394.133 167.397 314.189 195.875 244.916L202.506 228.795C203.444 226.508 206.066 225.411 208.353 226.356L225.358 233.346L225.069 234.054L216.532 254.803C205.129 282.548 205.677 312.291 215.777 338.261C226.479 365.77 247.898 389.057 277.184 401.283Z" fill="#FEE45A"/>
<path d="M452.488 320.537L360.096 282.551L210.528 221.059C208.008 220.023 205.236 220.031 202.722 221.08C200.209 222.129 198.254 224.094 197.218 226.613L190.592 242.73C160.771 315.264 194.971 398.343 266.829 427.928C284.055 435.021 302.184 438.6 320.421 438.599C331.078 438.599 341.774 437.376 352.342 434.918C380.366 428.4 405.386 413.77 424.698 392.608C426.826 390.275 426.661 386.66 424.329 384.531C421.996 382.402 418.381 382.568 416.252 384.9C398.507 404.345 375.511 417.79 349.751 423.781C323.431 429.903 296.261 427.681 271.181 417.355C205.15 390.169 173.742 313.783 201.166 247.078L207.323 232.103L217.897 236.45L211.248 252.623C210.812 253.684 210.376 254.798 209.877 256.132C208.769 259.088 210.268 262.383 213.225 263.491C213.886 263.739 214.563 263.856 215.229 263.856C217.544 263.856 219.724 262.439 220.583 260.143C221.04 258.925 221.433 257.917 221.822 256.97L228.471 240.797L292.538 267.137C290.785 274.406 291.319 281.847 293.769 288.573L218.849 330.019C214.072 315.071 212.541 298.914 214.854 282.571C215.297 279.446 213.122 276.553 209.995 276.11C206.869 275.668 203.976 277.843 203.534 280.969C195.992 334.239 225.3 385.736 274.861 406.496C274.912 406.519 274.961 406.546 275.014 406.568C275.049 406.583 275.085 406.592 275.12 406.605C275.277 406.671 275.432 406.74 275.589 406.804C290.243 412.829 305.417 415.681 320.359 415.68C366.85 415.677 411.029 388.057 429.773 342.463L436.422 326.292L446.997 330.639L440.348 346.811C437.607 353.479 434.28 359.975 430.46 366.118C428.792 368.8 429.614 372.324 432.295 373.992C434.977 375.661 438.502 374.837 440.169 372.157C444.324 365.477 447.942 358.413 450.924 351.159L458.042 333.843C460.18 328.645 457.689 322.675 452.488 320.537ZM349.862 290.706C343.079 300.342 330.288 304.391 318.94 299.725C307.592 295.059 301.347 283.186 303.304 271.565L349.862 290.706ZM222.952 340.817L299.281 298.592C302.035 302.173 305.458 305.292 309.473 307.719L274.147 393.645C250.841 382.418 232.998 363.452 222.952 340.817ZM284.696 398.055L320.049 312.064C322.927 312.758 325.831 313.098 328.709 313.098C330.391 313.098 332.062 312.977 333.714 312.753L358.491 397.206C346.415 401.812 333.497 404.248 320.375 404.247C308.492 404.247 296.44 402.247 284.696 398.055ZM419.199 338.118C409.133 362.603 390.948 381.347 369.033 392.523L344.676 309.502C351.148 306.443 356.763 301.532 360.63 295.133L425.847 321.946L419.199 338.118Z" fill="black"/>
<path d="M160.042 162.771C188.496 135.725 226.482 120.831 267.001 120.831C301.95 120.831 335.983 132.325 362.832 153.195C389.255 173.733 407.51 202.303 414.234 233.642C414.588 235.294 415.655 236.704 417.149 237.495L443.506 251.446C447.301 253.456 449.568 257.219 449.568 261.514C449.568 265.809 447.301 269.572 443.506 271.582L419.299 284.395C416.508 285.872 415.443 289.332 416.921 292.122C417.947 294.06 419.929 295.166 421.978 295.166C422.88 295.166 423.795 294.951 424.648 294.5L448.854 281.687C456.346 277.721 461.001 269.992 461.001 261.515C461.001 253.038 456.346 245.308 448.854 241.343L424.824 228.622C417.101 195.691 397.655 165.783 369.848 144.169C341.003 121.746 304.478 109.397 267.001 109.397C223.537 109.397 182.754 125.409 152.165 154.483C149.877 156.659 149.784 160.277 151.96 162.566C154.135 164.854 157.753 164.945 160.042 162.771Z" fill="black"/>
<path d="M195.209 385.102C156.021 365.081 128.524 330.193 119.768 289.383C119.414 287.732 118.346 286.321 116.853 285.53L90.4963 271.579C86.7003 269.57 84.4342 265.806 84.4342 261.511C84.4342 257.216 86.7003 253.453 90.4963 251.443L116.853 237.492C118.346 236.702 119.414 235.291 119.768 233.639C123.906 214.352 132.193 196.394 144.398 180.264C146.302 177.746 145.806 174.16 143.288 172.255C140.77 170.351 137.185 170.848 135.28 173.365C122.613 190.105 113.839 208.682 109.177 228.62L85.1476 241.339C77.6548 245.304 73.0005 253.034 73.0005 261.511C73.0005 269.988 77.6548 277.718 85.1469 281.683L109.176 294.404C119.25 337.457 148.582 374.121 190.007 395.284C190.84 395.71 191.728 395.911 192.603 395.911C194.682 395.911 196.687 394.772 197.698 392.794C199.135 389.982 198.02 386.538 195.209 385.102Z" fill="black"/>
</g>
</g>
<defs>
<clipPath id="clip0_673_1011">
<rect width="535" height="549" fill="white"/>
</clipPath>
<clipPath id="clip1_673_1011">
<rect width="388" height="388" fill="white" transform="translate(73 80)"/>
</clipPath>
</defs>
</svg>
