<?xml version="1.0" encoding="UTF-8"?>
<!DOCTYPE svg PUBLIC "-//W3C//DTD SVG 1.1//EN" "http://www.w3.org/Graphics/SVG/1.1/DTD/svg11.dtd">
<!-- Creator: CorelDRAW X7 -->
<svg xmlns="http://www.w3.org/2000/svg" xml:space="preserve" width="3024px" height="2366px" version="1.1" style="shape-rendering:geometricPrecision; text-rendering:geometricPrecision; image-rendering:optimizeQuality; fill-rule:evenodd; clip-rule:evenodd"
viewBox="0 0 3348 2620"
 xmlns:xlink="http://www.w3.org/1999/xlink">
 <defs>
  <style type="text/css">
   <![CDATA[
    .fil0 {fill:#FFE94D}
   ]]>
  </style>
 </defs>
 <g id="Layer_x0020_1">
  <metadata id="CorelCorpID_0Corel-Layer"/>
  <g id="_2342385784256">
   <path class="fil0" d="M2757 72c43,-24 83,-52 128,-72 76,128 136,266 177,410 42,148 60,302 68,456 12,309 -49,623 -195,896 -90,166 -217,310 -356,438 -275,245 -637,389 -1005,403 -178,8 -355,-21 -524,-76 -213,-68 -412,-176 -592,-308 -183,-136 -344,-305 -458,-503 44,-24 86,-51 130,-76 51,79 103,157 166,227 145,167 328,300 528,395 203,96 429,140 653,134 297,-16 593,-103 839,-272 266,-185 473,-456 579,-763 65,-193 89,-399 76,-602 -20,-241 -94,-477 -214,-687z"/>
   <path class="fil0" d="M2504 273c79,-46 134,-47 181,37 44,82 67,173 87,264 18,99 69,460 -24,529 -60,26 -128,6 -188,-11 -92,-32 -188,-52 -284,-75 -199,-48 -485,-98 -672,-170 60,-84 776,-500 900,-574z"/>
   <path class="fil0" d="M1513 345c75,-99 189,-36 132,127 -34,97 -66,195 -102,291 -37,-77 -69,-160 -70,-247 -4,-59 7,-121 40,-171z"/>
   <path class="fil0" d="M1086 446c66,6 132,26 189,62 69,41 180,169 201,251 -48,-41 -123,-103 -186,-117 -67,-19 -137,-14 -206,-12 -185,11 -163,-199 2,-184z"/>
   <path class="fil0" d="M1269 701c61,12 114,50 158,92 -69,4 -139,11 -208,6 -113,-10 -72,-137 50,-98z"/>
   <path class="fil0" d="M1565 964c171,-5 523,108 702,153 110,27 219,56 330,79 35,9 74,17 101,43 31,41 23,97 6,142 -34,81 -77,158 -125,232 -73,106 -164,198 -256,287 -32,27 -69,57 -114,54 -34,-1 -61,-28 -82,-53 -42,-56 -74,-118 -110,-178 -115,-188 -378,-574 -452,-759z"/>
   <path class="fil0" d="M1358 990c-8,101 -35,198 -58,295 -56,237 -125,470 -172,708 -31,122 -67,177 -197,124 -72,-33 -141,-72 -208,-115 -101,-64 -189,-147 -276,-229 -62,-62 -134,-144 -48,-219 53,-47 120,-73 180,-110 151,-94 304,-185 457,-278 67,-41 254,-171 322,-176z"/>
   <path class="fil0" d="M1462 1023c68,32 469,740 536,849 30,50 75,101 65,163 -15,63 -87,79 -139,100 -171,67 -356,83 -537,80 -55,-3 -117,5 -164,-30 -17,-8 -22,-28 -28,-44 -5,-58 7,-117 23,-172 63,-213 104,-432 161,-647 25,-100 54,-200 83,-299z"/>
   <path class="fil0" d="M2874 2125c72,-5 144,-13 216,-4 75,11 90,104 -25,102 -73,-6 -141,-45 -191,-98z"/>
   <path class="fil0" d="M2668 2408c31,-84 57,-170 88,-254 46,90 78,191 71,293 -30,173 -174,225 -188,116 -10,-54 12,-106 29,-155z"/>
   <path class="fil0" d="M3007 2276c76,22 156,11 234,13 186,21 111,230 -88,173 -62,-12 -119,-42 -169,-81 -55,-41 -142,-150 -155,-219 65,43 90,96 178,114z"/>
  </g>
 </g>
</svg>
